<svg xmlns="http://www.w3.org/2000/svg">
  <!-- Hugeicons Stroke Rounded, sourced from the hugeicons package used by OrderFlow. -->
  <symbol id="download" viewBox="0 0 24 24" fill="none">
    <path d="M2.99969 17.0002C2.99969 17.9302 2.99969 18.3952 3.10192 18.7767C3.37932 19.8119 4.18796 20.6206 5.22324 20.898C5.60474 21.0002 6.06972 21.0002 6.99969 21.0002L16.9997 21.0002C17.9297 21.0002 18.3947 21.0002 18.7762 20.898C19.8114 20.6206 20.6201 19.8119 20.8975 18.7767C20.9997 18.3952 20.9997 17.9302 20.9997 17.0002" stroke="currentColor" stroke-width="1.5" stroke-linecap="round" stroke-linejoin="round"/>
    <path d="M16.4998 11.5002C16.4998 11.5002 13.1856 16.0002 11.9997 16.0002C10.8139 16.0002 7.49976 11.5002 7.49976 11.5002M11.9997 15.0002V3.00016" stroke="currentColor" stroke-width="1.5" stroke-linecap="round" stroke-linejoin="round"/>
  </symbol>
  <symbol id="scan" viewBox="0 0 24 24" fill="none">
    <path d="M2.5 8.18677C2.60406 6.08705 2.91537 4.77792 3.84664 3.84664C4.77792 2.91537 6.08705 2.60406 8.18677 2.5M21.5 8.18677C21.3959 6.08705 21.0846 4.77792 20.1534 3.84664C19.2221 2.91537 17.9129 2.60406 15.8132 2.5M15.8132 21.5C17.9129 21.3959 19.2221 21.0846 20.1534 20.1534C21.0846 19.2221 21.3959 17.9129 21.5 15.8132M8.18676 21.5C6.08705 21.3959 4.77792 21.0846 3.84664 20.1534C2.91537 19.2221 2.60406 17.9129 2.5 15.8132" stroke="currentColor" stroke-width="1.5" stroke-linecap="round" stroke-linejoin="round"/>
    <path d="M16 7V17M12 7V13M12 17V17.01M8 7V17" stroke="currentColor" stroke-width="1.5" stroke-linecap="round" stroke-linejoin="round"/>
  </symbol>
  <symbol id="cloud" viewBox="0 0 24 24" fill="none">
    <path d="M17.5 18C19.9853 18 22 15.9853 22 13.5C22 11.0147 19.9853 9 17.5 9C17.4925 9 17.485 9.00002 17.4776 9.00005M17.4776 9.00005C17.4924 8.83536 17.5 8.66856 17.5 8.5C17.5 5.46243 15.0376 3 12 3C9.12324 3 6.76233 5.20862 6.52042 8.0227M17.4776 9.00005C17.4131 9.71494 17.2119 10.3904 16.9003 11M6.52042 8.0227C3.98398 8.26407 2 10.4003 2 13C2 15.419 3.71776 17.4367 6 17.9M6.52042 8.0227C6.67826 8.00768 6.83823 8 7 8C8.12582 8 9.16474 8.37209 10.0005 9" stroke="currentColor" stroke-width="1.5" stroke-linecap="round" stroke-linejoin="round"/>
    <path d="M9 19C9 19 10 19 11 21C11 21 14.1765 16 17 15" stroke="currentColor" stroke-width="1.5" stroke-linecap="round" stroke-linejoin="round"/>
  </symbol>
  <symbol id="replace" viewBox="0 0 24 24" fill="none">
    <path d="M16.9767 19.5C19.4017 17.8876 21 15.1305 21 12C21 7.02944 16.9706 3 12 3C11.3126 3 10.6432 3.07706 10 3.22302M16.9767 19.5V16M16.9767 19.5H20.5M7 4.51555C4.58803 6.13007 3 8.87958 3 12C3 16.9706 7.02944 21 12 21C12.6874 21 13.3568 20.9229 14 20.777M7 4.51555V8M7 4.51555H3.5" stroke="currentColor" stroke-width="1.5" stroke-linecap="round" stroke-linejoin="round"/>
  </symbol>
  <symbol id="box" viewBox="0 0 24 24" fill="none">
    <path d="M12 22C11.1818 22 10.4002 21.6698 8.83693 21.0095C4.94564 19.3657 3 18.5438 3 17.1613V7M12 22C12.8182 22 13.5998 21.6698 15.1631 21.0095C19.0544 19.3657 21 18.5438 21 17.1613V7M12 22V11.3548" stroke="currentColor" stroke-width="1.5" stroke-linecap="round" stroke-linejoin="round"/>
    <path d="M8.32592 9.69138L5.40472 8.27785C3.80157 7.5021 3 7.11423 3 6.5C3 5.88577 3.80157 5.4979 5.40472 4.72215L8.32592 3.30862C10.1288 2.43621 11.0303 2 12 2C12.9697 2 13.8712 2.4362 15.6741 3.30862L18.5953 4.72215C20.1984 5.4979 21 5.88577 21 6.5C21 7.11423 20.1984 7.5021 18.5953 8.27785L15.6741 9.69138C13.8712 10.5638 12.9697 11 12 11C11.0303 11 10.1288 10.5638 8.32592 9.69138Z" stroke="currentColor" stroke-width="1.5" stroke-linecap="round" stroke-linejoin="round"/>
    <path d="M6 12L8 13M17 4L7 9" stroke="currentColor" stroke-width="1.5" stroke-linecap="round" stroke-linejoin="round"/>
  </symbol>
  <symbol id="search" viewBox="0 0 24 24" fill="none">
    <path d="M17 17L21 21" stroke="currentColor" stroke-width="1.5" stroke-linecap="round" stroke-linejoin="round"/>
    <path d="M19 11C19 6.58172 15.4183 3 11 3C6.58172 3 3 6.58172 3 11C3 15.4183 6.58172 19 11 19C15.4183 19 19 15.4183 19 11Z" stroke="currentColor" stroke-width="1.5" stroke-linecap="round" stroke-linejoin="round"/>
  </symbol>
  <symbol id="telegram" viewBox="0 0 24 24" fill="none">
    <path d="M11.9854 15.4083L15.2268 19.0936C16.4277 20.4589 17.0282 21.1416 17.6567 20.9754C18.2852 20.8092 18.5008 19.9108 18.9318 18.1138L21.3229 8.1459C21.9868 5.37832 22.3187 3.99454 21.5808 3.312C20.843 2.62947 19.564 3.13725 17.0061 4.15282L5.13876 8.86449C3.09293 9.67674 2.07001 10.0829 2.00507 10.7808C1.99842 10.8522 1.99831 10.9241 2.00474 10.9955C2.06754 11.6937 3.08921 12.1033 5.13255 12.9223C6.05838 13.2934 6.5213 13.479 6.8532 13.8344C6.89052 13.8743 6.9264 13.9157 6.96078 13.9584C7.26658 14.3384 7.39709 14.8371 7.65808 15.8344L8.14653 17.701C8.4005 18.6715 8.52749 19.1568 8.86008 19.223C9.19267 19.2891 9.48225 18.8867 10.0614 18.0819L11.9854 15.4083ZM11.9854 15.4083L11.6676 15.0771C11.3059 14.7001 11.1251 14.5117 11.1251 14.2775C11.1251 14.0433 11.3059 13.8548 11.6676 13.4778L15.2406 9.75409" stroke="currentColor" stroke-width="1.5" stroke-linecap="round" stroke-linejoin="round"/>
  </symbol>
  <symbol id="shield" viewBox="0 0 24 24" fill="none">
    <path d="M18.7088 3.49534C16.8165 2.55382 14.5009 2 12 2C9.4991 2 7.1835 2.55382 5.29116 3.49534C4.36318 3.95706 3.89919 4.18792 3.4496 4.91378C3 5.63965 3 6.34248 3 7.74814V11.2371C3 16.9205 7.54236 20.0804 10.173 21.4338C10.9067 21.8113 11.2735 22 12 22C12.7265 22 13.0933 21.8113 13.8269 21.4338C16.4576 20.0804 21 16.9205 21 11.2371V7.74814C21 6.34249 21 5.63966 20.5504 4.91378C20.1008 4.18791 19.6368 3.95706 18.7088 3.49534Z" stroke="currentColor" stroke-width="1.5" stroke-linecap="round" stroke-linejoin="round"/>
  </symbol>
  <symbol id="camera" viewBox="0 0 24 24" fill="none">
    <path d="M12.6974 3.5H11.303C10.5884 3.5 10.2311 3.5 9.91067 3.612C9.71499 3.68039 9.53113 3.77879 9.36568 3.90367C9.09474 4.10816 8.89655 4.40544 8.50018 5C8.29717 5.30453 7.99794 5.75337 7.87867 5.87871C7.58314 6.18927 7.19563 6.39666 6.77329 6.47029C6.60284 6.5 6.41985 6.5 6.05387 6.5C5.07379 6.5 4.58376 6.5 4.18307 6.61342C3.18074 6.89716 2.39734 7.68055 2.1136 8.68289C2.00018 9.08357 2.00018 9.57361 2.00018 10.5537V14.5C2.00018 17.3284 2.00018 18.7426 2.87886 19.6213C3.75754 20.5 5.17176 20.5 8.00018 20.5H16.0002C18.8286 20.5 20.2428 20.5 21.1215 19.6213C22.0002 18.7426 22.0002 17.3284 22.0002 14.5V10.5537C22.0002 9.57361 22.0002 9.08357 21.8868 8.68289C21.603 7.68055 20.8196 6.89716 19.8173 6.61342C19.4166 6.5 18.9266 6.5 17.9465 6.5C17.5805 6.5 17.3975 6.5 17.2271 6.47029C16.8047 6.39666 16.4172 6.18927 16.1217 5.87871C16.0024 5.75336 15.7032 5.30451 15.5002 5C15.1038 4.40544 14.9056 4.10816 14.6347 3.90367C14.4692 3.77879 14.2854 3.68039 14.0897 3.612C13.7693 3.5 13.412 3.5 12.6974 3.5Z" stroke="currentColor" stroke-width="1.5" stroke-linecap="round" stroke-linejoin="round"/>
    <path d="M16.0002 13C16.0002 15.2091 14.2093 17 12.0002 17C9.79104 17 8.00018 15.2091 8.00018 13C8.00018 10.7909 9.79104 9 12.0002 9C14.2093 9 16.0002 10.7909 16.0002 13Z" stroke="currentColor" stroke-width="1.5" stroke-linecap="round" stroke-linejoin="round"/>
  </symbol>
  <symbol id="bell" viewBox="0 0 24 24" fill="none">
    <path d="M20 18.5011L18.349 7.93407C17.8603 4.80601 15.166 2.5 12 2.5C8.83398 2.5 6.13971 4.80601 5.65098 7.93407L4 18.5011" stroke="currentColor" stroke-width="1.5" stroke-linecap="round" stroke-linejoin="round"/>
    <path d="M20 18.5C20 16.8431 16.4183 15.5 12 15.5C7.58172 15.5 4 16.8431 4 18.5C4 20.1569 7.58172 21.5 12 21.5C16.4183 21.5 20 20.1569 20 18.5Z" stroke="currentColor" stroke-width="1.5" stroke-linecap="round" stroke-linejoin="round"/>
    <path d="M13 18.5H11" stroke="currentColor" stroke-width="1.5" stroke-linecap="round" stroke-linejoin="round"/>
  </symbol>
  <symbol id="database" viewBox="0 0 24 24" fill="none">
    <ellipse cx="12" cy="5" rx="8" ry="3" stroke="currentColor" stroke-width="1.5"/>
    <path d="M20 12C20 13.6569 16.4183 15 12 15C7.58172 15 4 13.6569 4 12M20 5V19C20 20.6569 16.4183 22 12 22C7.58172 22 4 20.6569 4 19V5M8 8V10M8 15V17" stroke="currentColor" stroke-width="1.5" stroke-linecap="round"/>
  </symbol>
  <symbol id="close" viewBox="0 0 24 24" fill="none">
    <path d="M18 6L6.00081 17.9992M17.9992 18L6 6.00085" stroke="currentColor" stroke-width="1.5" stroke-linecap="round" stroke-linejoin="round"/>
  </symbol>
  <symbol id="arrow" viewBox="0 0 24 24" fill="none">
    <path d="M9.00005 6C9.00005 6 15 10.4189 15 12C15 13.5812 9 18 9 18" stroke="currentColor" stroke-width="1.5" stroke-linecap="round" stroke-linejoin="round"/>
  </symbol>
</svg>
